<svg xmlns="http://www.w3.org/2000/svg" width="16" height="27" viewBox="0 0 16 27">
  <defs>
    <style>
      .cls-1 {
        fill-rule: evenodd;
      }
    </style>
  </defs>
  <path id="фейсбук" class="cls-1" d="M870.4,1001h-3.838c-4.311,0-7.1,2.61-7.1,6.64v3.07H855.6a0.575,0.575,0,0,0-.6.55v4.44a0.581,0.581,0,0,0,.6.55h3.858v11.2a0.581,0.581,0,0,0,.6.55H865.1a0.581,0.581,0,0,0,.6-0.55v-11.2h4.511a0.581,0.581,0,0,0,.6-0.55l0-4.44a0.518,0.518,0,0,0-.177-0.39,0.65,0.65,0,0,0-.427-0.16H865.7v-2.6c0-1.25.326-1.88,2.108-1.88H870.4a0.581,0.581,0,0,0,.6-0.55v-4.12A0.589,0.589,0,0,0,870.4,1001Z" transform="translate(-855 -1001)"/>
</svg>
