<svg xmlns="http://www.w3.org/2000/svg" width="14" height="13" viewBox="0 0 14 13">
  <defs>
    <style>
      .cls-1 {
        fill: #fff;
        fill-rule: evenodd;
      }
    </style>
  </defs>
  <path id="сердце" class="cls-1" d="M390.979,734.875a3.967,3.967,0,0,0-3.79-3.877,3.77,3.77,0,0,0-3.228,1.857A3.632,3.632,0,0,0,380.81,731a3.967,3.967,0,0,0-3.79,3.877,4.011,4.011,0,0,0,.119,1.474,6.325,6.325,0,0,0,1.939,3.231l4.88,4.421,4.963-4.421a6.321,6.321,0,0,0,1.939-3.231A4.011,4.011,0,0,0,390.979,734.875Z" transform="translate(-377 -731)"/>
</svg>
