<svg xmlns="http://www.w3.org/2000/svg" width="24" height="24" viewBox="0 0 24 24">
  <defs>
    <style>
      .cls-1 {
        fill-rule: evenodd;
      }
    </style>
  </defs>
  <path id="инстаграм" class="cls-1" d="M938.6,1003H919.4a2.407,2.407,0,0,0-2.4,2.4v19.2a2.407,2.407,0,0,0,2.4,2.4h19.2a2.407,2.407,0,0,0,2.4-2.4v-19.2A2.407,2.407,0,0,0,938.6,1003Zm-9.6,7.2a4.8,4.8,0,1,1-4.8,4.8A4.814,4.814,0,0,1,929,1010.2Zm-9,14.4a0.567,0.567,0,0,1-.6-0.6v-10.2h2.52a4.082,4.082,0,0,0-.12,1.2,7.2,7.2,0,0,0,14.4,0,4.082,4.082,0,0,0-.12-1.2h2.52V1024a0.567,0.567,0,0,1-.6.6H920Zm18.6-16.2a0.567,0.567,0,0,1-.6.6h-2.4a0.567,0.567,0,0,1-.6-0.6V1006a0.567,0.567,0,0,1,.6-0.6H938a0.567,0.567,0,0,1,.6.6v2.4Z" transform="translate(-917 -1003)"/>
</svg>
