<svg xmlns="http://www.w3.org/2000/svg" width="31" height="26.97" viewBox="0 0 31 26.97">
  <defs>
    <style>
      .cls-1 {
        fill-rule: evenodd;
      }
    </style>
  </defs>
  <path id="телеграм" class="cls-1" d="M1111.55,1014.93l7.15,2.67,2.77,8.88a0.834,0.834,0,0,0,1.33.4l3.99-3.24a1.186,1.186,0,0,1,1.45-.04l7.19,5.21a0.843,0.843,0,0,0,1.32-.51l5.26-25.29a0.84,0.84,0,0,0-1.13-.95l-29.34,11.3A0.839,0.839,0,0,0,1111.55,1014.93Zm9.47,1.25,13.97-8.59a0.243,0.243,0,0,1,.3.38l-11.53,10.7a2.411,2.411,0,0,0-.75,1.43l-0.39,2.91a0.358,0.358,0,0,1-.7.05l-1.51-5.3A1.383,1.383,0,0,1,1121.02,1016.18Z" transform="translate(-1111 -1002)"/>
</svg>
